<svg width="827" height="540" viewBox="0 0 827 540" fill="none" xmlns="http://www.w3.org/2000/svg">
<rect width="827" height="540" fill="#2D2D2F"/>
<g clip-path="url(#clip0_8_15)">
<path d="M242.257 305.691L361.445 101.351C376.585 110.277 452.928 152.587 465.258 160.634L346.07 364.985C333.035 382.23 225.743 331.861 242.257 305.679V305.691Z" fill="#FBBC04"/>
<path d="M584.704 305.686L465.516 101.359C448.853 73.5897 412.967 63.4981 383.491 79.8995C354.015 96.3008 345.04 131.631 361.703 160.641L480.891 364.993C497.554 392.75 533.441 402.84 562.917 386.441C591.104 370.038 601.366 333.454 584.704 305.71V305.686Z" fill="#4285F4"/>
<path d="M293.83 394.337C326.873 394.337 353.659 368.179 353.659 335.911C353.659 303.643 326.873 277.484 293.83 277.484C260.787 277.484 234 303.643 234 335.911C234 368.179 260.787 394.337 293.83 394.337Z" fill="#34A853"/>
</g>
<path d="M259.548 448C259.048 446.47 258.389 445.098 257.571 443.886C256.768 442.659 255.806 441.614 254.685 440.75C253.579 439.886 252.321 439.227 250.912 438.773C249.503 438.318 247.957 438.091 246.276 438.091C243.518 438.091 241.01 438.803 238.753 440.227C236.495 441.652 234.7 443.75 233.366 446.523C232.033 449.295 231.366 452.697 231.366 456.727C231.366 460.758 232.041 464.159 233.389 466.932C234.738 469.705 236.563 471.803 238.866 473.227C241.17 474.652 243.76 475.364 246.639 475.364C249.306 475.364 251.654 474.795 253.685 473.659C255.73 472.508 257.321 470.886 258.457 468.795C259.609 466.689 260.185 464.212 260.185 461.364L261.912 461.727H247.912V456.727H265.639V461.727C265.639 465.561 264.821 468.894 263.185 471.727C261.563 474.561 259.321 476.758 256.457 478.318C253.609 479.864 250.336 480.636 246.639 480.636C242.518 480.636 238.897 479.667 235.776 477.727C232.67 475.788 230.245 473.03 228.503 469.455C226.776 465.879 225.912 461.636 225.912 456.727C225.912 453.045 226.404 449.735 227.389 446.795C228.389 443.841 229.798 441.326 231.616 439.25C233.435 437.174 235.586 435.583 238.071 434.477C240.556 433.371 243.291 432.818 246.276 432.818C248.73 432.818 251.018 433.189 253.139 433.932C255.276 434.659 257.177 435.697 258.844 437.045C260.526 438.379 261.927 439.977 263.048 441.841C264.17 443.689 264.942 445.742 265.366 448H259.548ZM288.747 480.727C285.596 480.727 282.83 479.977 280.452 478.477C278.088 476.977 276.24 474.879 274.906 472.182C273.588 469.485 272.929 466.333 272.929 462.727C272.929 459.091 273.588 455.917 274.906 453.205C276.24 450.492 278.088 448.386 280.452 446.886C282.83 445.386 285.596 444.636 288.747 444.636C291.899 444.636 294.656 445.386 297.02 446.886C299.399 448.386 301.247 450.492 302.565 453.205C303.899 455.917 304.565 459.091 304.565 462.727C304.565 466.333 303.899 469.485 302.565 472.182C301.247 474.879 299.399 476.977 297.02 478.477C294.656 479.977 291.899 480.727 288.747 480.727ZM288.747 475.909C291.141 475.909 293.111 475.295 294.656 474.068C296.202 472.841 297.346 471.227 298.088 469.227C298.83 467.227 299.202 465.061 299.202 462.727C299.202 460.394 298.83 458.22 298.088 456.205C297.346 454.189 296.202 452.561 294.656 451.318C293.111 450.076 291.141 449.455 288.747 449.455C286.353 449.455 284.384 450.076 282.838 451.318C281.293 452.561 280.149 454.189 279.406 456.205C278.664 458.22 278.293 460.394 278.293 462.727C278.293 465.061 278.664 467.227 279.406 469.227C280.149 471.227 281.293 472.841 282.838 474.068C284.384 475.295 286.353 475.909 288.747 475.909ZM326.935 480.727C323.783 480.727 321.018 479.977 318.639 478.477C316.276 476.977 314.427 474.879 313.094 472.182C311.776 469.485 311.116 466.333 311.116 462.727C311.116 459.091 311.776 455.917 313.094 453.205C314.427 450.492 316.276 448.386 318.639 446.886C321.018 445.386 323.783 444.636 326.935 444.636C330.086 444.636 332.844 445.386 335.207 446.886C337.586 448.386 339.435 450.492 340.753 453.205C342.086 455.917 342.753 459.091 342.753 462.727C342.753 466.333 342.086 469.485 340.753 472.182C339.435 474.879 337.586 476.977 335.207 478.477C332.844 479.977 330.086 480.727 326.935 480.727ZM326.935 475.909C329.329 475.909 331.298 475.295 332.844 474.068C334.389 472.841 335.533 471.227 336.276 469.227C337.018 467.227 337.389 465.061 337.389 462.727C337.389 460.394 337.018 458.22 336.276 456.205C335.533 454.189 334.389 452.561 332.844 451.318C331.298 450.076 329.329 449.455 326.935 449.455C324.541 449.455 322.571 450.076 321.026 451.318C319.48 452.561 318.336 454.189 317.594 456.205C316.851 458.22 316.48 460.394 316.48 462.727C316.48 465.061 316.851 467.227 317.594 469.227C318.336 471.227 319.48 472.841 321.026 474.068C322.571 475.295 324.541 475.909 326.935 475.909ZM365.031 493.818C362.44 493.818 360.213 493.485 358.349 492.818C356.486 492.167 354.933 491.303 353.69 490.227C352.463 489.167 351.486 488.03 350.759 486.818L355.031 483.818C355.516 484.455 356.13 485.182 356.872 486C357.615 486.833 358.63 487.553 359.918 488.159C361.221 488.78 362.925 489.091 365.031 489.091C367.849 489.091 370.175 488.409 372.009 487.045C373.842 485.682 374.759 483.545 374.759 480.636V473.545H374.304C373.91 474.182 373.349 474.97 372.622 475.909C371.91 476.833 370.88 477.659 369.531 478.386C368.198 479.098 366.395 479.455 364.122 479.455C361.304 479.455 358.774 478.788 356.531 477.455C354.304 476.121 352.539 474.182 351.236 471.636C349.948 469.091 349.304 466 349.304 462.364C349.304 458.788 349.933 455.674 351.19 453.023C352.448 450.356 354.198 448.295 356.44 446.841C358.683 445.371 361.274 444.636 364.213 444.636C366.486 444.636 368.289 445.015 369.622 445.773C370.971 446.515 372.001 447.364 372.713 448.318C373.44 449.258 374.001 450.03 374.395 450.636H374.94V445.091H380.122V481C380.122 484 379.44 486.439 378.077 488.318C376.728 490.212 374.91 491.598 372.622 492.477C370.349 493.371 367.819 493.818 365.031 493.818ZM364.849 474.636C367.001 474.636 368.819 474.144 370.304 473.159C371.789 472.174 372.918 470.758 373.69 468.909C374.463 467.061 374.849 464.848 374.849 462.273C374.849 459.758 374.471 457.538 373.713 455.614C372.955 453.689 371.834 452.182 370.349 451.091C368.865 450 367.031 449.455 364.849 449.455C362.577 449.455 360.683 450.03 359.168 451.182C357.668 452.333 356.539 453.879 355.781 455.818C355.039 457.758 354.668 459.909 354.668 462.273C354.668 464.697 355.046 466.841 355.804 468.705C356.577 470.553 357.713 472.008 359.213 473.068C360.728 474.114 362.607 474.636 364.849 474.636ZM395.304 433.455V480H389.94V433.455H395.304ZM419.764 480.727C416.401 480.727 413.499 479.985 411.06 478.5C408.635 477 406.764 474.909 405.446 472.227C404.143 469.53 403.491 466.394 403.491 462.818C403.491 459.242 404.143 456.091 405.446 453.364C406.764 450.621 408.598 448.485 410.946 446.955C413.31 445.409 416.067 444.636 419.219 444.636C421.037 444.636 422.832 444.939 424.605 445.545C426.378 446.152 427.991 447.136 429.446 448.5C430.901 449.848 432.06 451.636 432.923 453.864C433.787 456.091 434.219 458.833 434.219 462.091V464.364H407.31V459.727H428.764C428.764 457.758 428.37 456 427.582 454.455C426.81 452.909 425.704 451.689 424.264 450.795C422.84 449.902 421.158 449.455 419.219 449.455C417.082 449.455 415.234 449.985 413.673 451.045C412.128 452.091 410.938 453.455 410.105 455.136C409.272 456.818 408.855 458.621 408.855 460.545V463.636C408.855 466.273 409.31 468.508 410.219 470.341C411.143 472.159 412.423 473.545 414.06 474.5C415.696 475.439 417.598 475.909 419.764 475.909C421.173 475.909 422.446 475.712 423.582 475.318C424.734 474.909 425.726 474.303 426.56 473.5C427.393 472.682 428.037 471.667 428.491 470.455L433.673 471.909C433.128 473.667 432.211 475.212 430.923 476.545C429.635 477.864 428.045 478.894 426.151 479.636C424.257 480.364 422.128 480.727 419.764 480.727ZM463.014 480H457.105L474.196 433.455H480.014L497.105 480H491.196L477.287 440.818H476.923L463.014 480ZM465.196 461.818H489.014V466.818H465.196V461.818ZM516.81 480.727C513.901 480.727 511.332 479.992 509.105 478.523C506.878 477.038 505.135 474.947 503.878 472.25C502.62 469.538 501.991 466.333 501.991 462.636C501.991 458.97 502.62 455.788 503.878 453.091C505.135 450.394 506.885 448.311 509.128 446.841C511.37 445.371 513.961 444.636 516.901 444.636C519.173 444.636 520.969 445.015 522.287 445.773C523.62 446.515 524.635 447.364 525.332 448.318C526.045 449.258 526.598 450.03 526.991 450.636H527.446V433.455H532.81V480H527.628V474.636H526.991C526.598 475.273 526.037 476.076 525.31 477.045C524.582 478 523.545 478.856 522.196 479.614C520.848 480.356 519.052 480.727 516.81 480.727ZM517.537 475.909C519.688 475.909 521.507 475.348 522.991 474.227C524.476 473.091 525.605 471.523 526.378 469.523C527.151 467.508 527.537 465.182 527.537 462.545C527.537 459.939 527.158 457.659 526.401 455.705C525.643 453.735 524.522 452.205 523.037 451.114C521.552 450.008 519.719 449.455 517.537 449.455C515.264 449.455 513.37 450.038 511.855 451.205C510.355 452.356 509.226 453.924 508.469 455.909C507.726 457.879 507.355 460.091 507.355 462.545C507.355 465.03 507.734 467.288 508.491 469.318C509.264 471.333 510.401 472.939 511.901 474.136C513.416 475.318 515.295 475.909 517.537 475.909ZM568.105 452.909L563.287 454.273C562.984 453.47 562.537 452.689 561.946 451.932C561.37 451.159 560.582 450.523 559.582 450.023C558.582 449.523 557.302 449.273 555.741 449.273C553.605 449.273 551.825 449.765 550.401 450.75C548.991 451.72 548.287 452.955 548.287 454.455C548.287 455.788 548.772 456.841 549.741 457.614C550.711 458.386 552.226 459.03 554.287 459.545L559.469 460.818C562.59 461.576 564.916 462.735 566.446 464.295C567.976 465.841 568.741 467.833 568.741 470.273C568.741 472.273 568.166 474.061 567.014 475.636C565.878 477.212 564.287 478.455 562.241 479.364C560.196 480.273 557.817 480.727 555.105 480.727C551.545 480.727 548.598 479.955 546.264 478.409C543.931 476.864 542.454 474.606 541.832 471.636L546.923 470.364C547.408 472.242 548.325 473.652 549.673 474.591C551.037 475.53 552.817 476 555.014 476C557.514 476 559.499 475.47 560.969 474.409C562.454 473.333 563.196 472.045 563.196 470.545C563.196 469.333 562.772 468.318 561.923 467.5C561.075 466.667 559.772 466.045 558.014 465.636L552.196 464.273C548.999 463.515 546.651 462.341 545.151 460.75C543.666 459.144 542.923 457.136 542.923 454.727C542.923 452.758 543.476 451.015 544.582 449.5C545.704 447.985 547.226 446.795 549.151 445.932C551.09 445.068 553.287 444.636 555.741 444.636C559.196 444.636 561.908 445.394 563.878 446.909C565.863 448.424 567.272 450.424 568.105 452.909Z" fill="white"/>
<defs>
<clipPath id="clip0_8_15">
<rect width="359" height="323" fill="white" transform="translate(234 72)"/>
</clipPath>
</defs>
</svg>
