<svg width="324" height="110" viewBox="0 0 324 110" fill="none" xmlns="http://www.w3.org/2000/svg">
<g clip-path="url(#clip0_7_2)">
<path d="M24.416 65L13.792 46.76H6.752V65H0.928V20.392H15.328C18.6987 20.392 21.536 20.968 23.84 22.12C26.1867 23.272 27.936 24.8293 29.088 26.792C30.24 28.7547 30.816 30.9947 30.816 33.512C30.816 36.584 29.92 39.2933 28.128 41.64C26.3787 43.9867 23.7333 45.544 20.192 46.312L31.392 65H24.416ZM6.752 42.088H15.328C18.4853 42.088 20.8533 41.32 22.432 39.784C24.0107 38.2053 24.8 36.1147 24.8 33.512C24.8 30.8667 24.0107 28.8187 22.432 27.368C20.896 25.9173 18.528 25.192 15.328 25.192H6.752V42.088ZM37.6895 47.336C37.6895 43.752 38.4148 40.616 39.8655 37.928C41.3162 35.1973 43.3002 33.0853 45.8175 31.592C48.3775 30.0987 51.2148 29.352 54.3295 29.352C57.4015 29.352 60.0682 30.0133 62.3295 31.336C64.5908 32.6587 66.2762 34.3227 67.3855 36.328V29.928H73.2735V65H67.3855V58.472C66.2335 60.52 64.5055 62.2267 62.2015 63.592C59.9402 64.9147 57.2948 65.576 54.2655 65.576C51.1508 65.576 48.3348 64.808 45.8175 63.272C43.3002 61.736 41.3162 59.5813 39.8655 56.808C38.4148 54.0347 37.6895 50.8773 37.6895 47.336ZM67.3855 47.4C67.3855 44.7547 66.8522 42.4507 65.7855 40.488C64.7188 38.5253 63.2682 37.032 61.4335 36.008C59.6415 34.9413 57.6575 34.408 55.4815 34.408C53.3055 34.408 51.3215 34.92 49.5295 35.944C47.7375 36.968 46.3082 38.4613 45.2415 40.424C44.1748 42.3867 43.6415 44.6907 43.6415 47.336C43.6415 50.024 44.1748 52.3707 45.2415 54.376C46.3082 56.3387 47.7375 57.8533 49.5295 58.92C51.3215 59.944 53.3055 60.456 55.4815 60.456C57.6575 60.456 59.6415 59.944 61.4335 58.92C63.2682 57.8533 64.7188 56.3387 65.7855 54.376C66.8522 52.3707 67.3855 50.0453 67.3855 47.4ZM100.204 29.288C104.47 29.288 107.926 30.5893 110.572 33.192C113.217 35.752 114.54 39.464 114.54 44.328V65H108.78V45.16C108.78 41.6613 107.905 38.9947 106.156 37.16C104.406 35.2827 102.017 34.344 98.9875 34.344C95.9155 34.344 93.4622 35.304 91.6275 37.224C89.8355 39.144 88.9395 41.9387 88.9395 45.608V65H83.1155V29.928H88.9395V34.92C90.0915 33.128 91.6488 31.7413 93.6115 30.76C95.6168 29.7787 97.8142 29.288 100.204 29.288ZM143.637 65L129.877 49.512V65H124.053V17.64H129.877V45.48L143.381 29.928H151.509L134.997 47.4L151.573 65H143.637ZM213.055 20.392L200.127 65H193.599L183.231 29.096L172.479 65L166.015 65.064L153.535 20.392H159.743L169.471 58.216L180.223 20.392H186.751L196.991 58.088L206.783 20.392H213.055ZM268.491 46.12C268.491 47.2293 268.427 48.4027 268.299 49.64H240.267C240.48 53.096 241.653 55.8053 243.787 57.768C245.963 59.688 248.587 60.648 251.659 60.648C254.176 60.648 256.267 60.072 257.931 58.92C259.637 57.7253 260.832 56.1467 261.515 54.184H267.787C266.848 57.5547 264.971 60.3067 262.155 62.44C259.339 64.5307 255.84 65.576 251.659 65.576C248.331 65.576 245.344 64.8293 242.699 63.336C240.096 61.8427 238.048 59.7307 236.555 57C235.061 54.2267 234.315 51.0267 234.315 47.4C234.315 43.7733 235.04 40.5947 236.491 37.864C237.941 35.1333 239.968 33.0427 242.571 31.592C245.216 30.0987 248.245 29.352 251.659 29.352C254.987 29.352 257.931 30.0773 260.491 31.528C263.051 32.9787 265.013 34.984 266.379 37.544C267.787 40.0613 268.491 42.92 268.491 46.12ZM262.475 44.904C262.475 42.6853 261.984 40.7867 261.003 39.208C260.021 37.5867 258.677 36.3707 256.971 35.56C255.307 34.7067 253.451 34.28 251.403 34.28C248.459 34.28 245.941 35.2187 243.851 37.096C241.803 38.9733 240.629 41.576 240.331 44.904H262.475ZM282.002 36.456C283.197 34.3653 284.946 32.6587 287.25 31.336C289.554 30.0133 292.178 29.352 295.122 29.352C298.279 29.352 301.117 30.0987 303.634 31.592C306.151 33.0853 308.135 35.1973 309.586 37.928C311.037 40.616 311.762 43.752 311.762 47.336C311.762 50.8773 311.037 54.0347 309.586 56.808C308.135 59.5813 306.13 61.736 303.57 63.272C301.053 64.808 298.237 65.576 295.122 65.576C292.093 65.576 289.426 64.9147 287.122 63.592C284.861 62.2693 283.154 60.584 282.002 58.536V65H276.178V17.64H282.002V36.456ZM305.81 47.336C305.81 44.6907 305.277 42.3867 304.21 40.424C303.143 38.4613 301.693 36.968 299.858 35.944C298.066 34.92 296.082 34.408 293.906 34.408C291.773 34.408 289.789 34.9413 287.954 36.008C286.162 37.032 284.711 38.5467 283.602 40.552C282.535 42.5147 282.002 44.7973 282.002 47.4C282.002 50.0453 282.535 52.3707 283.602 54.376C284.711 56.3387 286.162 57.8533 287.954 58.92C289.789 59.944 291.773 60.456 293.906 60.456C296.082 60.456 298.066 59.944 299.858 58.92C301.693 57.8533 303.143 56.3387 304.21 54.376C305.277 52.3707 305.81 50.024 305.81 47.336Z" fill="#FF7F00"/>
<path d="M248.316 6C238.95 6 229.967 9.70489 223.344 16.2996C216.721 22.8944 213 31.8388 213 41.1652C213 50.4915 216.721 59.4359 223.344 66.0307C229.967 72.6254 238.95 76.3303 248.316 76.3303H253.714C253.231 72.9985 253.231 69.6149 253.714 66.2831H248.316C241.626 66.2831 235.209 63.6368 230.479 58.9263C225.748 54.2157 223.09 47.8269 223.09 41.1652C223.09 34.5035 225.748 28.1146 230.479 23.4041C235.209 18.6935 241.626 16.0472 248.316 16.0472H288.677C292.418 16.0464 296.112 16.8742 299.492 18.4706C302.873 20.067 305.854 22.392 308.22 25.2772C310.586 28.1624 312.279 31.5355 313.174 35.1523C314.07 38.7691 314.146 42.5389 313.398 46.1888C316.372 49.0894 318.808 52.4908 320.592 56.236C323.146 50.8754 324.296 44.9587 323.935 39.0366C323.575 33.1145 321.715 27.3795 318.53 22.3655C315.344 17.3516 310.936 13.2216 305.717 10.3602C300.497 7.49871 294.635 5.99878 288.677 6H248.316ZM288.677 56.236C284.663 56.236 280.813 57.8238 277.975 60.6501C275.136 63.4764 273.541 67.3097 273.541 71.3067C273.541 75.3038 275.136 79.1371 277.975 81.9634C280.813 84.7897 284.663 86.3775 288.677 86.3775C292.691 86.3775 296.541 84.7897 299.379 81.9634C302.218 79.1371 303.812 75.3038 303.812 71.3067C303.812 67.3097 302.218 63.4764 299.379 60.6501C296.541 57.8238 292.691 56.236 288.677 56.236ZM263.451 71.3067C263.452 67.3904 264.373 63.5285 266.14 60.0296C267.906 56.5306 270.47 53.4915 273.627 51.155C276.783 48.8184 280.445 47.2492 284.319 46.5725C288.193 45.8959 292.172 46.1307 295.938 47.258C299.705 48.3854 303.155 50.3742 306.012 53.0655C308.869 55.7568 311.055 59.0761 312.394 62.7583C313.734 66.4406 314.19 70.3837 313.727 74.2727C313.263 78.1618 311.893 81.889 309.725 85.1568L322.514 97.8966L315.381 105L302.586 92.2652C298.784 94.7676 294.372 96.1975 289.819 96.403C285.266 96.6084 280.742 95.5818 276.728 93.4322C272.714 91.2825 269.36 88.0902 267.022 84.1944C264.685 80.2986 263.451 75.845 263.451 71.3067Z" fill="#2D2D2F"/>
</g>
<defs>
<clipPath id="clip0_7_2">
<rect width="324" height="110" fill="white"/>
</clipPath>
</defs>
</svg>
