<svg width="827" height="540" viewBox="0 0 827 540" fill="none" xmlns="http://www.w3.org/2000/svg">
<rect width="827" height="540" fill="#FF7F00"/>
<path d="M580.14 66H245.86C237.653 66 231 72.6532 231 80.8603V342.34C231 350.547 237.653 357.2 245.86 357.2H580.14C588.347 357.2 595 350.547 595 342.34V80.8603C595 72.6532 588.347 66 580.14 66Z" fill="#2F88FF" stroke="black" stroke-width="4"/>
<path d="M340.2 165.626C322 138.799 290.13 156.431 292.415 184.015C294.7 211.599 331.1 211.599 333.373 239.183C335.647 266.767 303.8 284.399 285.6 257.572" stroke="white" stroke-width="4" stroke-linecap="round" stroke-linejoin="round"/>
<path d="M431.2 157H394.8V275.3H431.2" stroke="white" stroke-width="4" stroke-linecap="round" stroke-linejoin="round"/>
<path d="M394.8 220.7H431.2" stroke="white" stroke-width="4" stroke-linecap="round" stroke-linejoin="round"/>
<path d="M540.4 184.3C540.4 169.223 528.177 157 513.1 157C498.023 157 485.8 169.223 485.8 184.3V248C485.8 263.077 498.023 275.3 513.1 275.3C528.177 275.3 540.4 263.077 540.4 248V184.3Z" stroke="white" stroke-width="4" stroke-linecap="round" stroke-linejoin="round"/>
<path d="M227.591 394.091C227.318 391.788 226.212 390 224.273 388.727C222.333 387.455 219.955 386.818 217.136 386.818C215.076 386.818 213.273 387.152 211.727 387.818C210.197 388.485 209 389.402 208.136 390.568C207.288 391.735 206.864 393.061 206.864 394.545C206.864 395.788 207.159 396.856 207.75 397.75C208.356 398.629 209.129 399.364 210.068 399.955C211.008 400.53 211.992 401.008 213.023 401.386C214.053 401.75 215 402.045 215.864 402.273L220.591 403.545C221.803 403.864 223.152 404.303 224.636 404.864C226.136 405.424 227.568 406.189 228.932 407.159C230.311 408.114 231.447 409.341 232.341 410.841C233.235 412.341 233.682 414.182 233.682 416.364C233.682 418.879 233.023 421.152 231.705 423.182C230.402 425.212 228.492 426.826 225.977 428.023C223.477 429.22 220.439 429.818 216.864 429.818C213.53 429.818 210.644 429.28 208.205 428.205C205.78 427.129 203.871 425.629 202.477 423.705C201.098 421.78 200.318 419.545 200.136 417H205.955C206.106 418.758 206.697 420.212 207.727 421.364C208.773 422.5 210.091 423.348 211.682 423.909C213.288 424.455 215.015 424.727 216.864 424.727C219.015 424.727 220.947 424.379 222.659 423.682C224.371 422.97 225.727 421.985 226.727 420.727C227.727 419.455 228.227 417.97 228.227 416.273C228.227 414.727 227.795 413.47 226.932 412.5C226.068 411.53 224.932 410.742 223.523 410.136C222.114 409.53 220.591 409 218.955 408.545L213.227 406.909C209.591 405.864 206.712 404.371 204.591 402.432C202.47 400.492 201.409 397.955 201.409 394.818C201.409 392.212 202.114 389.939 203.523 388C204.947 386.045 206.856 384.53 209.25 383.455C211.659 382.364 214.348 381.818 217.318 381.818C220.318 381.818 222.985 382.356 225.318 383.432C227.652 384.492 229.5 385.947 230.864 387.795C232.242 389.644 232.97 391.742 233.045 394.091H227.591ZM256.858 429.727C253.494 429.727 250.593 428.985 248.153 427.5C245.729 426 243.858 423.909 242.54 421.227C241.237 418.53 240.585 415.394 240.585 411.818C240.585 408.242 241.237 405.091 242.54 402.364C243.858 399.621 245.691 397.485 248.04 395.955C250.403 394.409 253.161 393.636 256.312 393.636C258.131 393.636 259.926 393.939 261.699 394.545C263.472 395.152 265.085 396.136 266.54 397.5C267.994 398.848 269.153 400.636 270.017 402.864C270.881 405.091 271.312 407.833 271.312 411.091V413.364H244.403V408.727H265.858C265.858 406.758 265.464 405 264.676 403.455C263.903 401.909 262.797 400.689 261.358 399.795C259.934 398.902 258.252 398.455 256.312 398.455C254.176 398.455 252.328 398.985 250.767 400.045C249.222 401.091 248.032 402.455 247.199 404.136C246.366 405.818 245.949 407.621 245.949 409.545V412.636C245.949 415.273 246.403 417.508 247.312 419.341C248.237 421.159 249.517 422.545 251.153 423.5C252.79 424.439 254.691 424.909 256.858 424.909C258.267 424.909 259.54 424.712 260.676 424.318C261.828 423.909 262.82 423.303 263.653 422.5C264.487 421.682 265.131 420.667 265.585 419.455L270.767 420.909C270.222 422.667 269.305 424.212 268.017 425.545C266.729 426.864 265.138 427.894 263.244 428.636C261.35 429.364 259.222 429.727 256.858 429.727ZM289.744 429.818C287.532 429.818 285.525 429.402 283.722 428.568C281.919 427.72 280.487 426.5 279.426 424.909C278.366 423.303 277.835 421.364 277.835 419.091C277.835 417.091 278.229 415.47 279.017 414.227C279.805 412.97 280.858 411.985 282.176 411.273C283.494 410.561 284.949 410.03 286.54 409.682C288.146 409.318 289.759 409.03 291.381 408.818C293.502 408.545 295.222 408.341 296.54 408.205C297.873 408.053 298.843 407.803 299.449 407.455C300.07 407.106 300.381 406.5 300.381 405.636V405.455C300.381 403.212 299.767 401.47 298.54 400.227C297.328 398.985 295.487 398.364 293.017 398.364C290.456 398.364 288.449 398.924 286.994 400.045C285.54 401.167 284.517 402.364 283.926 403.636L278.835 401.818C279.744 399.697 280.956 398.045 282.472 396.864C284.002 395.667 285.669 394.833 287.472 394.364C289.29 393.879 291.078 393.636 292.835 393.636C293.956 393.636 295.244 393.773 296.699 394.045C298.169 394.303 299.585 394.841 300.949 395.659C302.328 396.477 303.472 397.712 304.381 399.364C305.29 401.015 305.744 403.227 305.744 406V429H300.381V424.273H300.108C299.744 425.03 299.138 425.841 298.29 426.705C297.441 427.568 296.313 428.303 294.903 428.909C293.494 429.515 291.775 429.818 289.744 429.818ZM290.562 425C292.684 425 294.472 424.583 295.926 423.75C297.396 422.917 298.502 421.841 299.244 420.523C300.002 419.205 300.381 417.818 300.381 416.364V411.455C300.153 411.727 299.653 411.977 298.881 412.205C298.123 412.417 297.244 412.606 296.244 412.773C295.259 412.924 294.297 413.061 293.358 413.182C292.434 413.288 291.684 413.379 291.108 413.455C289.714 413.636 288.411 413.932 287.199 414.341C286.002 414.735 285.032 415.333 284.29 416.136C283.563 416.924 283.199 418 283.199 419.364C283.199 421.227 283.888 422.636 285.267 423.591C286.661 424.53 288.426 425 290.562 425ZM315.534 429V394.091H320.716V399.364H321.08C321.716 397.636 322.867 396.235 324.534 395.159C326.201 394.083 328.08 393.545 330.17 393.545C330.564 393.545 331.057 393.553 331.648 393.568C332.239 393.583 332.686 393.606 332.989 393.636V399.091C332.807 399.045 332.39 398.977 331.739 398.886C331.102 398.78 330.428 398.727 329.716 398.727C328.019 398.727 326.504 399.083 325.17 399.795C323.852 400.492 322.807 401.462 322.034 402.705C321.277 403.932 320.898 405.333 320.898 406.909V429H315.534ZM352.466 429.727C349.193 429.727 346.375 428.955 344.011 427.409C341.648 425.864 339.83 423.735 338.557 421.023C337.284 418.311 336.648 415.212 336.648 411.727C336.648 408.182 337.299 405.053 338.602 402.341C339.92 399.614 341.754 397.485 344.102 395.955C346.466 394.409 349.223 393.636 352.375 393.636C354.83 393.636 357.042 394.091 359.011 395C360.981 395.909 362.595 397.182 363.852 398.818C365.11 400.455 365.89 402.364 366.193 404.545H360.83C360.42 402.955 359.511 401.545 358.102 400.318C356.708 399.076 354.83 398.455 352.466 398.455C350.375 398.455 348.542 399 346.966 400.091C345.405 401.167 344.186 402.689 343.307 404.659C342.443 406.614 342.011 408.909 342.011 411.545C342.011 414.242 342.436 416.591 343.284 418.591C344.148 420.591 345.36 422.144 346.92 423.25C348.496 424.356 350.345 424.909 352.466 424.909C353.86 424.909 355.125 424.667 356.261 424.182C357.398 423.697 358.36 423 359.148 422.091C359.936 421.182 360.496 420.091 360.83 418.818H366.193C365.89 420.879 365.14 422.735 363.943 424.386C362.761 426.023 361.193 427.326 359.239 428.295C357.299 429.25 355.042 429.727 352.466 429.727ZM379.398 408V429H374.034V382.455H379.398V399.545H379.852C380.67 397.742 381.898 396.311 383.534 395.25C385.186 394.174 387.383 393.636 390.125 393.636C392.504 393.636 394.587 394.114 396.375 395.068C398.163 396.008 399.549 397.455 400.534 399.409C401.534 401.348 402.034 403.818 402.034 406.818V429H396.67V407.182C396.67 404.409 395.951 402.265 394.511 400.75C393.087 399.22 391.11 398.455 388.58 398.455C386.822 398.455 385.246 398.826 383.852 399.568C382.473 400.311 381.383 401.394 380.58 402.818C379.792 404.242 379.398 405.97 379.398 408ZM430.574 429V382.455H458.665V387.455H436.21V403.182H457.21V408.182H436.21V424H459.028V429H430.574ZM473.46 408V429H468.097V394.091H473.278V399.545H473.733C474.551 397.773 475.794 396.348 477.46 395.273C479.127 394.182 481.278 393.636 483.915 393.636C486.278 393.636 488.347 394.121 490.119 395.091C491.892 396.045 493.271 397.5 494.256 399.455C495.241 401.394 495.733 403.848 495.733 406.818V429H490.369V407.182C490.369 404.439 489.657 402.303 488.233 400.773C486.809 399.227 484.854 398.455 482.369 398.455C480.657 398.455 479.127 398.826 477.778 399.568C476.445 400.311 475.392 401.394 474.619 402.818C473.847 404.242 473.46 405.97 473.46 408ZM519.625 442.818C517.034 442.818 514.807 442.485 512.943 441.818C511.08 441.167 509.527 440.303 508.284 439.227C507.057 438.167 506.08 437.03 505.352 435.818L509.625 432.818C510.11 433.455 510.723 434.182 511.466 435C512.208 435.833 513.223 436.553 514.511 437.159C515.814 437.78 517.519 438.091 519.625 438.091C522.443 438.091 524.769 437.409 526.602 436.045C528.436 434.682 529.352 432.545 529.352 429.636V422.545H528.898C528.504 423.182 527.943 423.97 527.216 424.909C526.504 425.833 525.473 426.659 524.125 427.386C522.792 428.098 520.989 428.455 518.716 428.455C515.898 428.455 513.367 427.788 511.125 426.455C508.898 425.121 507.133 423.182 505.83 420.636C504.542 418.091 503.898 415 503.898 411.364C503.898 407.788 504.527 404.674 505.784 402.023C507.042 399.356 508.792 397.295 511.034 395.841C513.277 394.371 515.867 393.636 518.807 393.636C521.08 393.636 522.883 394.015 524.216 394.773C525.564 395.515 526.595 396.364 527.307 397.318C528.034 398.258 528.595 399.03 528.989 399.636H529.534V394.091H534.716V430C534.716 433 534.034 435.439 532.67 437.318C531.322 439.212 529.504 440.598 527.216 441.477C524.943 442.371 522.413 442.818 519.625 442.818ZM519.443 423.636C521.595 423.636 523.413 423.144 524.898 422.159C526.383 421.174 527.511 419.758 528.284 417.909C529.057 416.061 529.443 413.848 529.443 411.273C529.443 408.758 529.064 406.538 528.307 404.614C527.549 402.689 526.428 401.182 524.943 400.091C523.458 399 521.625 398.455 519.443 398.455C517.17 398.455 515.277 399.03 513.761 400.182C512.261 401.333 511.133 402.879 510.375 404.818C509.633 406.758 509.261 408.909 509.261 411.273C509.261 413.697 509.64 415.841 510.398 417.705C511.17 419.553 512.307 421.008 513.807 422.068C515.322 423.114 517.201 423.636 519.443 423.636ZM544.534 429V394.091H549.898V429H544.534ZM547.261 388.273C546.216 388.273 545.314 387.917 544.557 387.205C543.814 386.492 543.443 385.636 543.443 384.636C543.443 383.636 543.814 382.78 544.557 382.068C545.314 381.356 546.216 381 547.261 381C548.307 381 549.201 381.356 549.943 382.068C550.701 382.78 551.08 383.636 551.08 384.636C551.08 385.636 550.701 386.492 549.943 387.205C549.201 387.917 548.307 388.273 547.261 388.273ZM565.085 408V429H559.722V394.091H564.903V399.545H565.358C566.176 397.773 567.419 396.348 569.085 395.273C570.752 394.182 572.903 393.636 575.54 393.636C577.903 393.636 579.972 394.121 581.744 395.091C583.517 396.045 584.896 397.5 585.881 399.455C586.866 401.394 587.358 403.848 587.358 406.818V429H581.994V407.182C581.994 404.439 581.282 402.303 579.858 400.773C578.434 399.227 576.479 398.455 573.994 398.455C572.282 398.455 570.752 398.826 569.403 399.568C568.07 400.311 567.017 401.394 566.244 402.818C565.472 404.242 565.085 405.97 565.085 408ZM611.795 429.727C608.432 429.727 605.53 428.985 603.091 427.5C600.667 426 598.795 423.909 597.477 421.227C596.174 418.53 595.523 415.394 595.523 411.818C595.523 408.242 596.174 405.091 597.477 402.364C598.795 399.621 600.629 397.485 602.977 395.955C605.341 394.409 608.098 393.636 611.25 393.636C613.068 393.636 614.864 393.939 616.636 394.545C618.409 395.152 620.023 396.136 621.477 397.5C622.932 398.848 624.091 400.636 624.955 402.864C625.818 405.091 626.25 407.833 626.25 411.091V413.364H599.341V408.727H620.795C620.795 406.758 620.402 405 619.614 403.455C618.841 401.909 617.735 400.689 616.295 399.795C614.871 398.902 613.189 398.455 611.25 398.455C609.114 398.455 607.265 398.985 605.705 400.045C604.159 401.091 602.97 402.455 602.136 404.136C601.303 405.818 600.886 407.621 600.886 409.545V412.636C600.886 415.273 601.341 417.508 602.25 419.341C603.174 421.159 604.455 422.545 606.091 423.5C607.727 424.439 609.629 424.909 611.795 424.909C613.205 424.909 614.477 424.712 615.614 424.318C616.765 423.909 617.758 423.303 618.591 422.5C619.424 421.682 620.068 420.667 620.523 419.455L625.705 420.909C625.159 422.667 624.242 424.212 622.955 425.545C621.667 426.864 620.076 427.894 618.182 428.636C616.288 429.364 614.159 429.727 611.795 429.727ZM267.034 482.727C267.034 487.636 266.148 491.879 264.375 495.455C262.602 499.03 260.17 501.788 257.08 503.727C253.989 505.667 250.458 506.636 246.489 506.636C242.519 506.636 238.989 505.667 235.898 503.727C232.807 501.788 230.375 499.03 228.602 495.455C226.83 491.879 225.943 487.636 225.943 482.727C225.943 477.818 226.83 473.576 228.602 470C230.375 466.424 232.807 463.667 235.898 461.727C238.989 459.788 242.519 458.818 246.489 458.818C250.458 458.818 253.989 459.788 257.08 461.727C260.17 463.667 262.602 466.424 264.375 470C266.148 473.576 267.034 477.818 267.034 482.727ZM261.58 482.727C261.58 478.697 260.905 475.295 259.557 472.523C258.223 469.75 256.413 467.652 254.125 466.227C251.852 464.803 249.307 464.091 246.489 464.091C243.67 464.091 241.117 464.803 238.83 466.227C236.557 467.652 234.746 469.75 233.398 472.523C232.064 475.295 231.398 478.697 231.398 482.727C231.398 486.758 232.064 490.159 233.398 492.932C234.746 495.705 236.557 497.803 238.83 499.227C241.117 500.652 243.67 501.364 246.489 501.364C249.307 501.364 251.852 500.652 254.125 499.227C256.413 497.803 258.223 495.705 259.557 492.932C260.905 490.159 261.58 486.758 261.58 482.727ZM275.784 519.091V471.091H280.966V476.636H281.602C281.996 476.03 282.542 475.258 283.239 474.318C283.951 473.364 284.966 472.515 286.284 471.773C287.617 471.015 289.42 470.636 291.693 470.636C294.633 470.636 297.223 471.371 299.466 472.841C301.708 474.311 303.458 476.394 304.716 479.091C305.973 481.788 306.602 484.97 306.602 488.636C306.602 492.333 305.973 495.538 304.716 498.25C303.458 500.947 301.716 503.038 299.489 504.523C297.261 505.992 294.693 506.727 291.784 506.727C289.542 506.727 287.746 506.356 286.398 505.614C285.049 504.856 284.011 504 283.284 503.045C282.557 502.076 281.996 501.273 281.602 500.636H281.148V519.091H275.784ZM281.057 488.545C281.057 491.182 281.443 493.508 282.216 495.523C282.989 497.523 284.117 499.091 285.602 500.227C287.087 501.348 288.905 501.909 291.057 501.909C293.299 501.909 295.17 501.318 296.67 500.136C298.186 498.939 299.322 497.333 300.08 495.318C300.852 493.288 301.239 491.03 301.239 488.545C301.239 486.091 300.86 483.879 300.102 481.909C299.36 479.924 298.231 478.356 296.716 477.205C295.216 476.038 293.33 475.455 291.057 475.455C288.875 475.455 287.042 476.008 285.557 477.114C284.072 478.205 282.951 479.735 282.193 481.705C281.436 483.659 281.057 485.939 281.057 488.545ZM329.966 471.091V475.636H311.875V471.091H329.966ZM317.148 462.727H322.511V496C322.511 497.515 322.731 498.652 323.17 499.409C323.625 500.152 324.201 500.652 324.898 500.909C325.61 501.152 326.36 501.273 327.148 501.273C327.739 501.273 328.223 501.242 328.602 501.182C328.981 501.106 329.284 501.045 329.511 501L330.602 505.818C330.239 505.955 329.731 506.091 329.08 506.227C328.428 506.379 327.602 506.455 326.602 506.455C325.087 506.455 323.602 506.129 322.148 505.477C320.708 504.826 319.511 503.833 318.557 502.5C317.617 501.167 317.148 499.485 317.148 497.455V462.727ZM338.034 506V471.091H343.398V506H338.034ZM340.761 465.273C339.716 465.273 338.814 464.917 338.057 464.205C337.314 463.492 336.943 462.636 336.943 461.636C336.943 460.636 337.314 459.78 338.057 459.068C338.814 458.356 339.716 458 340.761 458C341.807 458 342.701 458.356 343.443 459.068C344.201 459.78 344.58 460.636 344.58 461.636C344.58 462.636 344.201 463.492 343.443 464.205C342.701 464.917 341.807 465.273 340.761 465.273ZM353.222 506V471.091H358.403V476.545H358.858C359.585 474.682 360.759 473.235 362.381 472.205C364.002 471.159 365.949 470.636 368.222 470.636C370.525 470.636 372.441 471.159 373.972 472.205C375.517 473.235 376.722 474.682 377.585 476.545H377.949C378.843 474.742 380.184 473.311 381.972 472.25C383.759 471.174 385.903 470.636 388.403 470.636C391.525 470.636 394.078 471.614 396.062 473.568C398.047 475.508 399.04 478.53 399.04 482.636V506H393.676V482.636C393.676 480.061 392.972 478.22 391.562 477.114C390.153 476.008 388.494 475.455 386.585 475.455C384.131 475.455 382.229 476.197 380.881 477.682C379.532 479.152 378.858 481.015 378.858 483.273V506H373.403V482.091C373.403 480.106 372.759 478.508 371.472 477.295C370.184 476.068 368.525 475.455 366.494 475.455C365.1 475.455 363.797 475.826 362.585 476.568C361.388 477.311 360.419 478.341 359.676 479.659C358.949 480.962 358.585 482.47 358.585 484.182V506H353.222ZM408.847 506V471.091H414.21V506H408.847ZM411.574 465.273C410.528 465.273 409.627 464.917 408.869 464.205C408.127 463.492 407.756 462.636 407.756 461.636C407.756 460.636 408.127 459.78 408.869 459.068C409.627 458.356 410.528 458 411.574 458C412.619 458 413.513 458.356 414.256 459.068C415.013 459.78 415.392 460.636 415.392 461.636C415.392 462.636 415.013 463.492 414.256 464.205C413.513 464.917 412.619 465.273 411.574 465.273ZM423.034 506V501.909L442.852 476.455V476.091H423.67V471.091H449.761V475.364L430.489 500.636V501H450.398V506H423.034ZM468.932 506.818C466.72 506.818 464.712 506.402 462.909 505.568C461.106 504.72 459.674 503.5 458.614 501.909C457.553 500.303 457.023 498.364 457.023 496.091C457.023 494.091 457.417 492.47 458.205 491.227C458.992 489.97 460.045 488.985 461.364 488.273C462.682 487.561 464.136 487.03 465.727 486.682C467.333 486.318 468.947 486.03 470.568 485.818C472.689 485.545 474.409 485.341 475.727 485.205C477.061 485.053 478.03 484.803 478.636 484.455C479.258 484.106 479.568 483.5 479.568 482.636V482.455C479.568 480.212 478.955 478.47 477.727 477.227C476.515 475.985 474.674 475.364 472.205 475.364C469.644 475.364 467.636 475.924 466.182 477.045C464.727 478.167 463.705 479.364 463.114 480.636L458.023 478.818C458.932 476.697 460.144 475.045 461.659 473.864C463.189 472.667 464.856 471.833 466.659 471.364C468.477 470.879 470.265 470.636 472.023 470.636C473.144 470.636 474.432 470.773 475.886 471.045C477.356 471.303 478.773 471.841 480.136 472.659C481.515 473.477 482.659 474.712 483.568 476.364C484.477 478.015 484.932 480.227 484.932 483V506H479.568V501.273H479.295C478.932 502.03 478.326 502.841 477.477 503.705C476.629 504.568 475.5 505.303 474.091 505.909C472.682 506.515 470.962 506.818 468.932 506.818ZM469.75 502C471.871 502 473.659 501.583 475.114 500.75C476.583 499.917 477.689 498.841 478.432 497.523C479.189 496.205 479.568 494.818 479.568 493.364V488.455C479.341 488.727 478.841 488.977 478.068 489.205C477.311 489.417 476.432 489.606 475.432 489.773C474.447 489.924 473.485 490.061 472.545 490.182C471.621 490.288 470.871 490.379 470.295 490.455C468.902 490.636 467.598 490.932 466.386 491.341C465.189 491.735 464.22 492.333 463.477 493.136C462.75 493.924 462.386 495 462.386 496.364C462.386 498.227 463.076 499.636 464.455 500.591C465.848 501.53 467.614 502 469.75 502ZM509.903 471.091V475.636H491.812V471.091H509.903ZM497.085 462.727H502.449V496C502.449 497.515 502.669 498.652 503.108 499.409C503.563 500.152 504.138 500.652 504.835 500.909C505.547 501.152 506.297 501.273 507.085 501.273C507.676 501.273 508.161 501.242 508.54 501.182C508.919 501.106 509.222 501.045 509.449 501L510.54 505.818C510.176 505.955 509.669 506.091 509.017 506.227C508.366 506.379 507.54 506.455 506.54 506.455C505.025 506.455 503.54 506.129 502.085 505.477C500.646 504.826 499.449 503.833 498.494 502.5C497.555 501.167 497.085 499.485 497.085 497.455V462.727ZM517.972 506V471.091H523.335V506H517.972ZM520.699 465.273C519.653 465.273 518.752 464.917 517.994 464.205C517.252 463.492 516.881 462.636 516.881 461.636C516.881 460.636 517.252 459.78 517.994 459.068C518.752 458.356 519.653 458 520.699 458C521.744 458 522.638 458.356 523.381 459.068C524.138 459.78 524.517 460.636 524.517 461.636C524.517 462.636 524.138 463.492 523.381 464.205C522.638 464.917 521.744 465.273 520.699 465.273ZM547.341 506.727C544.189 506.727 541.424 505.977 539.045 504.477C536.682 502.977 534.833 500.879 533.5 498.182C532.182 495.485 531.523 492.333 531.523 488.727C531.523 485.091 532.182 481.917 533.5 479.205C534.833 476.492 536.682 474.386 539.045 472.886C541.424 471.386 544.189 470.636 547.341 470.636C550.492 470.636 553.25 471.386 555.614 472.886C557.992 474.386 559.841 476.492 561.159 479.205C562.492 481.917 563.159 485.091 563.159 488.727C563.159 492.333 562.492 495.485 561.159 498.182C559.841 500.879 557.992 502.977 555.614 504.477C553.25 505.977 550.492 506.727 547.341 506.727ZM547.341 501.909C549.735 501.909 551.705 501.295 553.25 500.068C554.795 498.841 555.939 497.227 556.682 495.227C557.424 493.227 557.795 491.061 557.795 488.727C557.795 486.394 557.424 484.22 556.682 482.205C555.939 480.189 554.795 478.561 553.25 477.318C551.705 476.076 549.735 475.455 547.341 475.455C544.947 475.455 542.977 476.076 541.432 477.318C539.886 478.561 538.742 480.189 538 482.205C537.258 484.22 536.886 486.394 536.886 488.727C536.886 491.061 537.258 493.227 538 495.227C538.742 497.227 539.886 498.841 541.432 500.068C542.977 501.295 544.947 501.909 547.341 501.909ZM576.71 485V506H571.347V471.091H576.528V476.545H576.983C577.801 474.773 579.044 473.348 580.71 472.273C582.377 471.182 584.528 470.636 587.165 470.636C589.528 470.636 591.597 471.121 593.369 472.091C595.142 473.045 596.521 474.5 597.506 476.455C598.491 478.394 598.983 480.848 598.983 483.818V506H593.619V484.182C593.619 481.439 592.907 479.303 591.483 477.773C590.059 476.227 588.104 475.455 585.619 475.455C583.907 475.455 582.377 475.826 581.028 476.568C579.695 477.311 578.642 478.394 577.869 479.818C577.097 481.242 576.71 482.97 576.71 485Z" fill="white"/>
</svg>
